<?xml version="1.0" encoding="UTF-8"?>
<svg id="_图层_1" data-name="图层 1" xmlns="http://www.w3.org/2000/svg" xmlns:xlink="http://www.w3.org/1999/xlink" viewBox="380 376 1116 290">
  <defs>
    <style>
      .cls-2 {
        fill: #ffffff;
      }

      .cls-3 {
        fill: url(#_未命名的渐变_34);
      }

      .cls-5 {
        fill: #30a8f8;
      }
    </style>
    <linearGradient id="_未命名的渐变_34" data-name="未命名的渐变 34" x1="510.01" y1="584.42" x2="656.11" y2="438.33" gradientUnits="userSpaceOnUse">
      <stop offset="0" stop-color="#2ea6f9"/>
      <stop offset="1" stop-color="#2065f0"/>
    </linearGradient>
  </defs>
  <g transform="translate(-48.4,-6.7)">
    <g>
      <g>
        <path class="cls-2" d="M1348.32,455.88l3.66,11.76h-27.32c.46-.73,4.57-7.56,11.52-27.06h-20.45c-4.67,10.08-14.36,25.93-15.05,27.06h-.09v13.64h68.55s5.5,0,5.5,0l-7.9-25.4h-18.4Z"/>
        <path class="cls-2" d="M1398.91,486.49v-45.94h-18.41v50.35c0,5.89,4.77,10.66,10.66,10.66h50.42v-15.06h-42.67Z"/>
        <path class="cls-2" d="M1437.14,445.11c-12.71,4.83-24.91,9.03-32.19,11.48v17.62c7.55-2.2,20.22-6.1,32.19-10.83v-18.27Z"/>
        <path class="cls-2" d="M1404.96,527.32v17.62c7.55-2.2,20.22-6.1,32.19-10.83v-18.27c-12.71,4.83-24.91,9.03-32.19,11.48"/>
        <path class="cls-2" d="M1398.91,507.36h-18.41v54.28c0,5.89,4.77,10.66,10.66,10.66h50.42v-15.06h-42.67v-49.87Z"/>
        <path class="cls-2" d="M1354.23,487.52h-53.65v84.81h18.41v-71.17h35.24v10.02h-29.19v13.64h29.19v9.89h-29.19v13.64h29.19v8.97h-7.26v15.06h15.01c5.89,0,10.66-4.77,10.66-10.66v-60.56h.02v-13.64h-18.43Z"/>
        <path class="cls-2" d="M1084.94,440.65h-16.93v56.72h-52.66c.31-10.46.41-22.23.44-35.62,12.18-1.14,24.2-2.55,31.38-4.18v-16.86c-26.33,5.47-71.92,7.97-71.92,7.97v16.05s10.39-.56,23.61-1.56c-.03,13.02-.15,24.31-.44,34.2h-29.56v16.86h28.8c-1.83,28.22-6.28,42.98-16.81,58.13h19.89c8.49-15.51,12.24-32.37,13.86-58.13h53.41v58.12h16.93v-58.12h24.9v-16.86h-24.9v-56.72Z"/>
        <path class="cls-2" d="M842.89,451.33v68.82c0,29.94-7.47,52.18-7.47,52.18h19.82s6.05-28.49,6.05-45.56v-69.07h32.02l-4.27,8.37h-22.1v58.56h27.7v47.77h9.31c5.03,0,9.1-4.08,9.1-9.1v-38.67h17.03c5.89,0,10.66-4.78,10.66-10.67v-11.79s.01,0,.01,0v-13.64h-.04v-8.82s.04,0,.04,0v-13.64h-33.3l4.27-8.37h32.12v-17.06l-90.32.05c-5.87,0-10.62,4.76-10.62,10.63M922.28,488.53h-30.88v13.64h30.88v8.82h-36.93v-31.28h36.93v8.82Z"/>
        <polygon class="cls-2" points="816.75 509.78 837.19 509.78 823.24 475.27 837.19 475.27 823.23 440.73 802.79 440.73 816.74 475.24 802.79 475.24 816.75 509.78"/>
        <polygon class="cls-2" points="818.24 518.44 803.14 572.33 821.55 572.33 836.64 518.44 818.24 518.44"/>
        <path class="cls-2" d="M864.26,572.36h17.11c2.87-19.62,4.89-33.89,5.67-39.42h-17.1c-.99,6.98-2.99,21.02-5.68,39.42"/>
        <path class="cls-2" d="M920.65,532.94c.78,5.53,2.8,19.8,5.67,39.42h17.11c-2.69-18.41-4.7-32.45-5.68-39.42h-17.1Z"/>
        <path class="cls-2" d="M1225.78,444.5c-5.87,0-10.63,4.76-10.63,10.63v50.9h49.99c5.87,0,10.63-4.77,10.63-10.64v-50.89h-49.98ZM1256.28,492.32h-21.67v-34.18h21.67v34.18Z"/>
        <path class="cls-2" d="M1142.42,521.61v50.9h19.47v-.06l95.55.06c5.89,0,10.66-4.77,10.66-10.66v-50.86h-115.06c-5.87,0-10.63,4.76-10.63,10.63M1161.88,524.62h86.75v10.44h-80.7v13.64h80.7v10.1h-86.75v-34.18Z"/>
        <path class="cls-2" d="M1134.99,506.1h24.28c5.94-6.41,10.32-12.2,13.49-17.44,3.17,5.24,7.55,11.03,13.49,17.44h24.28c-11.33-10.05-18.29-18.24-22.57-24.81h22.85v-13.64h-29.07c-.65-2.86-.65-4.96-.65-6.4v-3.11h26.21v-13.64h-47.67c.77-2.38,1.21-3.85,1.21-3.85h-18.41s-3.06,9.14-6,17.54l4.47-.05h23.55v3.11c0,1.44,0,3.54-.65,6.4h-29.07v13.64h22.85c-4.29,6.57-11.25,14.76-22.57,24.81"/>
      </g>
      <g>
        <rect class="cls-2" x="1331.92" y="603.48" width="8.16" height="7.02"/>
        <g>
          <path class="cls-2" d="M1177.22,646.72c0,.97-.22,1.89-.64,2.74-.43.85-1.01,1.6-1.74,2.23s-1.59,1.13-2.57,1.5c-.98.37-2.04.55-3.17.55h-21.05c-1.1,0-2.15-.18-3.14-.55-.99-.37-1.86-.87-2.59-1.5-.73-.63-1.32-1.37-1.74-2.23-.43-.86-.64-1.77-.64-2.74v-24.2c0-.97.21-1.89.64-2.74.42-.85,1.01-1.6,1.74-2.22.73-.63,1.59-1.13,2.59-1.5.99-.37,2.04-.55,3.15-.55h21.04c1.13,0,2.19.18,3.17.55.98.37,1.84.87,2.57,1.5.73.63,1.31,1.37,1.74,2.22.43.86.64,1.77.64,2.74v24.2ZM1148.05,622.52v24.2h21.05v-24.2h-21.05Z"/>
          <path class="cls-2" d="M1278.86,646.77c0,.97-.22,1.89-.64,2.74-.43.86-1.01,1.6-1.74,2.23-.73.63-1.59,1.13-2.57,1.5-.98.37-2.04.55-3.17.55h-21.04c-1.1,0-2.15-.18-3.15-.55-.99-.37-1.86-.87-2.59-1.5-.73-.63-1.32-1.37-1.74-2.23-.43-.85-.64-1.77-.64-2.74v-24.25c0-.97.21-1.89.64-2.74.42-.85,1.01-1.6,1.74-2.23.73-.63,1.59-1.13,2.59-1.5.99-.37,2.04-.55,3.15-.55h21.04c1.13,0,2.19.18,3.17.55.98.37,1.84.87,2.57,1.5.73.63,1.31,1.37,1.74,2.23.42.86.64,1.77.64,2.74v24.25ZM1249.69,646.77h21.04v-24.25h-21.04v24.25Z"/>
          <path class="cls-2" d="M1227.48,619.78c-.42-.86-1.01-1.6-1.74-2.23-.73-.63-1.59-1.13-2.59-1.5-.99-.37-2.05-.55-3.19-.55h-16.44s0,7.02,0,7.02h16.44v24.22h-21.03v-43.26h-8.11v43.26c0,.98.21,1.89.64,2.74.42.86,1.01,1.6,1.74,2.23.73.63,1.59,1.13,2.59,1.5.99.37,2.04.55,3.14.55h21.03c1.13,0,2.19-.18,3.19-.55.99-.37,1.86-.87,2.59-1.5.73-.63,1.32-1.37,1.74-2.23.43-.85.64-1.77.64-2.74v-24.22c0-.97-.21-1.89-.64-2.74"/>
          <rect class="cls-2" x="1331.92" y="615.49" width="8.16" height="38.3"/>
          <path class="cls-2" d="M1361.66,622.51v24.26h21.04v-6.41h8.16v6.41c0,.97-.21,1.89-.64,2.74-.42.85-1.01,1.6-1.74,2.23s-1.59,1.13-2.59,1.5c-.99.37-2.05.55-3.19.55h-21.04c-1.1,0-2.15-.18-3.15-.55-.99-.37-1.86-.87-2.59-1.5-.73-.63-1.31-1.37-1.74-2.23-.43-.86-.64-1.77-.64-2.74v-24.26c0-.97.21-1.89.64-2.74.43-.85,1.01-1.6,1.74-2.22.73-.63,1.59-1.13,2.59-1.5.99-.37,2.04-.55,3.15-.55h21.04c1.13,0,2.19.18,3.19.55.99.36,1.86.87,2.59,1.5.73.63,1.32,1.37,1.74,2.22.43.86.64,1.77.64,2.74v6.41h-8.16v-6.41h-21.04Z"/>
          <path class="cls-2" d="M1318.26,622.52v-7.02h-14.49v-12.01l-8.16.32v43.22c0,.65.21,1.56.64,2.42.43.85,1.02,1.6,1.76,2.23.75.63,1.61,1.13,2.61,1.5.99.37,2.04.55,3.15.55h14.49v-7.02h-14.49v-24.2h14.49Z"/>
          <rect class="cls-2" x="1284.18" y="615.51" width="6.74" height="7.02"/>
          <polygon class="cls-2" points="1022.5 615.5 1014.28 615.5 1014.28 653.72 1022.5 653.72 1022.5 629.93 1022.5 615.5"/>
          <path class="cls-2" d="M1050.84,619.83c-.43-.87-1.02-1.61-1.76-2.25-.74-.64-1.61-1.15-2.62-1.51-1.01-.38-2.08-.56-3.23-.56h-16.03v7.1h16.03v31.12h8.26v-31.12c0-.99-.21-1.91-.65-2.78"/>
          <path class="cls-2" d="M941.99,646.72v-8.6h-20.87c-1.13,0-2.19-.18-3.18-.55-.99-.36-1.85-.86-2.58-1.49-.73-.62-1.31-1.37-1.74-2.22-.43-.85-.64-1.76-.64-2.74v-8.6c0-.97.21-1.88.64-2.74.43-.85,1-1.59,1.74-2.22s1.59-1.13,2.58-1.49c.99-.37,2.05-.55,3.18-.55h29.01v7h-29.01v8.6h20.87c1.13,0,2.18.18,3.16.55.98.37,1.84.86,2.58,1.49.74.63,1.33,1.37,1.75,2.22.43.85.64,1.76.64,2.74v8.6c0,.97-.21,1.88-.64,2.74-.42.85-1.01,1.59-1.75,2.22-.74.63-1.6,1.13-2.58,1.49-.98.37-2.03.55-3.16.55h-29.01v-7h29.01Z"/>
          <path class="cls-2" d="M1433.44,646.72v-8.6h-20.87c-1.13,0-2.19-.18-3.18-.55-.99-.36-1.85-.86-2.58-1.49-.73-.62-1.31-1.37-1.74-2.22-.43-.85-.64-1.76-.64-2.74v-8.6c0-.97.21-1.88.64-2.74.43-.85,1-1.59,1.74-2.22.73-.63,1.59-1.13,2.58-1.49.99-.37,2.05-.55,3.18-.55h29.01v7h-29.01v8.6h20.87c1.13,0,2.18.18,3.16.55.98.37,1.84.86,2.58,1.49.74.63,1.33,1.37,1.75,2.22.43.85.64,1.76.64,2.74v8.6c0,.97-.21,1.88-.64,2.74-.42.85-1.01,1.59-1.75,2.22-.74.63-1.6,1.13-2.58,1.49-.98.37-2.03.55-3.16.55h-29.01v-7h29.01Z"/>
          <path class="cls-2" d="M1000.81,638.11v-15.61c0-.97-.21-1.88-.64-2.74-.42-.85-1-1.59-1.73-2.22-.73-.63-1.59-1.13-2.58-1.49-.99-.37-2.05-.55-3.18-.55h-20.99c-1.1,0-2.14.18-3.14.55-.99.36-1.86.86-2.58,1.49-.73.63-1.31,1.37-1.73,2.22-.43.85-.64,1.76-.64,2.74v24.22c0,.97.21,1.88.64,2.74.42.85,1,1.59,1.73,2.22.72.63,1.59,1.13,2.58,1.49.99.37,2.04.55,3.14.55h29.12v-7h-29.12v-24.22h20.99v8.61h-16.29v7h24.42Z"/>
          <rect class="cls-2" x="802.96" y="603.66" width="8.47" height="50.07"/>
          <polygon class="cls-2" points="830.15 627.62 838.62 627.62 851.65 653.72 843.18 653.72 830.15 627.62"/>
          <path class="cls-2" d="M803.25,603.58v7.29h40.12v15.33h-27.23v7.29h26.65c5,0,9.06-3.49,9.06-7.79v-14.33c0-4.3-4.05-7.79-9.06-7.79h-39.54Z"/>
          <rect class="cls-2" x="1076.68" y="603.66" width="8.47" height="50.07"/>
          <polygon class="cls-2" points="1103.87 627.62 1112.34 627.62 1125.37 653.72 1116.9 653.72 1103.87 627.62"/>
          <path class="cls-2" d="M1076.97,603.58v7.29h40.12v15.33h-27.23v7.29h26.65c5,0,9.06-3.49,9.06-7.79v-14.33c0-4.3-4.05-7.79-9.06-7.79h-39.54Z"/>
          <path class="cls-2" d="M866.71,651.65c.74.64,1.61,1.15,2.62,1.52,1.01.37,2.08.56,3.23.56h16.03v-7.1h-16.03v-31.12h-8.26v31.12c0,.99.22,1.91.65,2.78.43.87,1.02,1.61,1.76,2.25"/>
          <path class="cls-2" d="M901.51,634.05v-18.55h-8.21v47.95s-29-.42-29-.42v7l29.12.42c1.1,0,2.14-.18,3.14-.55.99-.36,1.86-.86,2.58-1.49.73-.63,1.31-1.37,1.73-2.22.43-.85.64-1.76.64-2.74v-29.4Z"/>
        </g>
      </g>
    </g>
    <g>
      <path class="cls-3" d="M687.33,417.73c-6.71-6.7-16.23-9.8-25.6-8.33l-89.73,14.06-.06-.03-93.53,93.59,44.26,44.27,103.43-103.49c3.58-3.58,9.38-3.58,12.96,0l52.21,52.22c3.58,3.58,3.58,9.39,0,12.97l-103.43,103.49,44.26,44.27,93.51-93.57.05.1,14.08-89.9c1.47-9.39-1.64-18.92-8.36-25.64l-44.07-44Z"/>
      <rect class="cls-5" x="512.8" y="595.4" width="62.17" height="62.17" transform="translate(-283.7 568.15) rotate(-45)"/>
    </g>
  </g>
</svg>
