<?xml version="1.0" encoding="UTF-8"?>
<svg id="_图层_1" data-name="图层 1" xmlns="http://www.w3.org/2000/svg" xmlns:xlink="http://www.w3.org/1999/xlink" viewBox="0 0 1920 1080">
  <defs>
    <style>
      .cls-1 {
        fill: none;
        stroke: #000;
        stroke-miterlimit: 10;
      }

      .cls-2 {
        fill: url(#_未命名的渐变_34);
      }

      .cls-3 {
        fill: #1c2748;
      }

      .cls-4 {
        fill: #f0eff2;
      }

      .cls-5 {
        fill: #30a8f8;
      }

      .cls-6 {
        fill: #565656;
      }
    </style>
    <linearGradient id="_未命名的渐变_34" data-name="未命名的渐变 34" x1="510.01" y1="584.42" x2="656.11" y2="438.33" gradientUnits="userSpaceOnUse">
      <stop offset="0" stop-color="#2ea6f9"/>
      <stop offset="1" stop-color="#2065f0"/>
    </linearGradient>
  </defs>
  <rect class="cls-4" x="-.02" y="-.02" width="1920.3" height="1080.25"/>
  <g>
    <path class="cls-3" d="M1078.79,446.61h102.07v15.78h-101.75c-1.32,0-2.46.24-3.44.71-.97.47-1.78,1.1-2.42,1.89-.64.79-1.12,1.68-1.43,2.67-.31.99-.47,2.01-.46,3.05.01,1.04.18,2.06.5,3.05.32.99.81,1.88,1.46,2.67.65.79,1.46,1.42,2.42,1.89.96.47,2.08.71,3.36.71l79.83.09c2.77,0,5.31.32,7.6.97,2.29.65,4.35,1.55,6.18,2.7,1.83,1.15,3.43,2.51,4.79,4.09,1.37,1.57,2.5,3.29,3.41,5.15.9,1.86,1.58,3.81,2.03,5.87.45,2.05.68,4.15.68,6.27.02,2.07-.2,4.11-.65,6.15-.45,2.03-1.13,3.98-2.04,5.84-.9,1.86-2.04,3.58-3.41,5.18-1.37,1.59-2.97,2.97-4.81,4.13-1.84,1.16-3.91,2.08-6.21,2.74-2.3.67-4.83,1-7.58,1h-101.9v-15.78h101.57c1.3,0,2.43-.3,3.41-.9.97-.6,1.78-1.36,2.43-2.27.65-.91,1.14-1.92,1.46-3.01.32-1.09.49-2.12.49-3.08,0-.89-.16-1.79-.49-2.73-.32-.93-.81-1.77-1.46-2.52-.65-.75-1.46-1.36-2.43-1.84-.97-.48-2.11-.72-3.41-.72l-79.83-.09c-3.3,0-6.28-.46-8.92-1.39-2.64-.92-4.96-2.18-6.93-3.78-1.97-1.59-3.62-3.45-4.94-5.56-1.32-2.11-2.3-4.37-2.95-6.76-.65-2.39-.97-4.84-.97-7.34s.33-4.96,1-7.35c.67-2.39,1.66-4.64,2.98-6.75,1.32-2.11,2.96-3.97,4.94-5.56,1.98-1.59,4.28-2.85,6.92-3.78,2.64-.92,5.6-1.39,8.88-1.39"/>
    <polygon class="cls-3" points="1330.76 479.13 1232.88 479.13 1232.88 446.62 1215.62 446.62 1215.62 529.2 1232.88 529.2 1232.88 494.9 1330.76 494.9 1330.76 479.13"/>
    <rect class="cls-3" x="1243.47" y="513.43" width="98.02" height="15.77"/>
    <rect class="cls-3" x="1243.47" y="446.62" width="98.02" height="15.79"/>
    <polygon class="cls-3" points="752.84 446.62 752.84 529.2 770.09 529.2 770.09 496.34 770.09 479.11 770.09 446.62 752.84 446.62"/>
    <polygon class="cls-3" points="836.87 486.09 853.07 529.2 872.01 529.2 855.81 486.09 836.87 486.09"/>
    <path class="cls-3" d="M754.72,480.02v15.78h101.61c13.58,0,24.59-11.01,24.59-24.59s-11.01-24.59-24.59-24.59h-75.88v15.78h74.43c4.87,0,8.81,3.94,8.81,8.81s-3.94,8.81-8.81,8.81h-100.16Z"/>
    <polygon class="cls-3" points="1033.71 446.62 1009.53 446.62 967.49 476.8 925.89 446.62 901.28 446.62 958.83 489.68 958.87 489.68 958.87 529.2 976.12 529.2 976.12 496.34 976.12 489.68 976.16 489.68 1033.71 446.62"/>
    <polygon class="cls-3" points="1373.48 446.62 1373.48 529.2 1390.72 529.2 1390.72 496.34 1390.72 479.11 1390.72 446.62 1373.48 446.62"/>
    <polygon class="cls-3" points="1466.35 446.62 1466.35 506.24 1437.61 482.82 1416.83 465.89 1399.85 452.05 1399.85 474.53 1466.35 529.2 1483.59 529.2 1483.59 496.34 1483.59 479.11 1483.59 446.62 1466.35 446.62"/>
    <polygon class="cls-3" points="752.84 573.99 752.84 618.84 762.21 618.84 762.21 600.99 762.21 591.64 762.21 573.99 752.84 573.99"/>
    <polygon class="cls-3" points="798.47 595.43 807.27 618.84 817.56 618.84 808.76 595.43 798.47 595.43"/>
    <path class="cls-3" d="M753.86,592.13v8.57h55.18c7.38,0,13.35-5.98,13.35-13.35s-5.98-13.35-13.35-13.35h-41.21v8.57h40.42c2.64,0,4.78,2.14,4.78,4.79s-2.14,4.78-4.78,4.78h-54.4Z"/>
    <path class="cls-3" d="M1428.44,618.84v-7.03h44.16c.39,0,.72-.07,1-.23.32-.17.57-.38.78-.64.22-.27.38-.57.49-.89.11-.33.17-.64.17-.92,0-.24-.05-.5-.16-.77-.1-.26-.25-.48-.45-.69-.2-.2-.45-.37-.76-.5-.29-.13-.65-.19-1.06-.19l-34.51-.03c-1.43,0-2.74-.18-3.9-.54-1.16-.36-2.19-.85-3.06-1.47-.87-.62-1.61-1.35-2.19-2.17-.58-.82-1.01-1.7-1.3-2.62-.28-.92-.43-1.87-.43-2.82s.15-1.91.44-2.83c.29-.92.73-1.8,1.3-2.61.58-.82,1.32-1.55,2.19-2.17.87-.62,1.9-1.11,3.05-1.47,1.15-.36,2.46-.54,3.88-.54h44.37v7.03h-44.24c-.42,0-.78.06-1.08.19-.3.13-.54.29-.73.5-.2.22-.35.47-.45.74-.1.29-.16.59-.15.89,0,.31.06.61.17.9.1.28.26.53.46.75.2.21.44.38.74.51.29.12.64.19,1.04.19l34.51.03c1.2,0,2.31.13,3.31.38,1,.25,1.92.6,2.72,1.05.8.45,1.52.99,2.13,1.6.6.61,1.1,1.29,1.5,2,.39.71.69,1.48.89,2.27.2.79.29,1.6.29,2.4,0,.78-.09,1.58-.28,2.36-.2.78-.5,1.54-.89,2.25-.4.72-.9,1.4-1.5,2.01-.61.62-1.33,1.17-2.14,1.62-.81.45-1.73.81-2.73,1.07-1.01.26-2.12.39-3.31.39h-44.29Z"/>
    <rect class="cls-3" x="1264.94" y="577.29" width="10.17" height="7.05"/>
    <rect class="cls-3" x="1264.94" y="587.66" width="10.17" height="31.18"/>
    <path class="cls-3" d="M1176.66,609.98v-15.27h.01v-7.05h-.01v-10.37h-9.48v10.37h0v24.21c0,3.85,3.54,6.97,7.91,6.97h39.78v-6.97h-36.06c-1.19,0-2.15-.85-2.15-1.9"/>
    <rect class="cls-3" x="1182.42" y="587.66" width="32.45" height="7.05"/>
    <path class="cls-3" d="M1343.54,618.84l36.88-.03v-7.12h-35.27c-4.68,0-8.48-3.79-8.48-8.48s3.8-8.48,8.48-8.48h35.3v-7.12h-36.92c-8.6,0-15.58,6.96-15.61,15.56-.03,8.64,6.98,15.67,15.62,15.66"/>
    <path class="cls-3" d="M997.17,587.63l-21.63.03v7.12h20.02c4.68,0,8.48,3.79,8.48,8.48s-3.79,8.48-8.48,8.48h-35.3v7.12h36.92c8.6,0,15.58-6.96,15.61-15.56.03-8.64-6.98-15.67-15.62-15.66"/>
    <rect class="cls-3" x="960.26" y="577.29" width="9.73" height="41.55"/>
    <path class="cls-3" d="M902.58,587.63l-21.71.03v7.12h20.1c4.68,0,8.48,3.79,8.48,8.48s-3.79,8.48-8.48,8.48h-1.51v7.12h3.13c8.6,0,15.58-6.96,15.61-15.56.03-8.64-6.98-15.67-15.62-15.66"/>
    <path class="cls-3" d="M871.57,618.84l21.9-.03v-7.12h-20.3c-4.68,0-8.48-3.79-8.48-8.48s3.79-8.48,8.48-8.48h2.04v-7.12h-3.66c-8.6,0-15.58,6.96-15.61,15.56-.03,8.64,6.98,15.67,15.62,15.66"/>
    <path class="cls-3" d="M1101.49,587.63l-21.71.03v7.12h20.1c4.68,0,8.48,3.79,8.48,8.48s-3.8,8.48-8.48,8.48h-1.51v7.12h3.13c8.6,0,15.58-6.96,15.61-15.56.03-8.64-6.98-15.67-15.62-15.66"/>
    <path class="cls-3" d="M1070.47,618.84l21.9-.03v-7.12h-20.3c-4.68,0-8.48-3.79-8.48-8.48s3.8-8.48,8.48-8.48h2.04v-7.12h-3.66c-8.6,0-15.58,6.96-15.61,15.56-.03,8.64,6.98,15.67,15.62,15.66"/>
    <path class="cls-6" d="M783.77,68.64l-3.88-10.02h1.44l2.6,7.28c.21.58.39,1.13.53,1.64.15-.55.34-1.09.54-1.64l2.71-7.28h1.35l-3.92,10.02h-1.36Z"/>
    <rect class="cls-6" x="795.79" y="58.62" width="1.33" height="10.02"/>
    <path class="cls-6" d="M804.33,65.42l1.25-.11c.06.5.2.91.41,1.23.22.32.55.58,1.01.78.46.2.97.3,1.54.3.51,0,.95-.08,1.34-.23.39-.15.68-.36.86-.62.19-.26.28-.55.28-.86s-.09-.59-.27-.82c-.18-.24-.48-.43-.9-.59-.27-.11-.86-.27-1.78-.49-.92-.22-1.57-.43-1.93-.62-.48-.25-.84-.56-1.07-.93-.23-.37-.35-.79-.35-1.25,0-.51.14-.98.43-1.42.29-.44.71-.77,1.26-1,.55-.23,1.16-.34,1.84-.34.74,0,1.4.12,1.97.36.57.24,1,.59,1.31,1.06.3.47.47.99.49,1.58l-1.27.1c-.07-.63-.3-1.11-.69-1.43-.4-.32-.98-.49-1.75-.49s-1.39.15-1.75.44c-.37.29-.55.65-.55,1.06,0,.36.13.66.39.89.26.23.92.47,2,.71,1.08.24,1.82.46,2.22.64.58.27,1.01.61,1.29,1.02.28.41.42.89.42,1.43s-.15,1.04-.46,1.51c-.3.47-.74.84-1.32,1.1-.57.26-1.22.39-1.93.39-.91,0-1.67-.13-2.28-.4-.61-.27-1.09-.66-1.44-1.19-.35-.53-.53-1.13-.55-1.8"/>
    <path class="cls-6" d="M826.01,58.62h1.33v5.79c0,1.01-.11,1.81-.34,2.4-.23.59-.64,1.08-1.23,1.45-.6.37-1.38.56-2.34.56s-1.71-.16-2.3-.48c-.6-.32-1.02-.79-1.28-1.41-.26-.61-.38-1.45-.38-2.51v-5.79h1.33v5.78c0,.87.08,1.51.24,1.92.16.41.44.73.83.95.39.22.88.34,1.45.34.97,0,1.67-.22,2.09-.66.41-.44.62-1.29.62-2.55v-5.78Z"/>
    <path class="cls-6" d="M833.76,68.64l3.85-10.02h1.43l4.1,10.02h-1.51l-1.17-3.04h-4.19l-1.1,3.04h-1.41ZM836.66,64.52h3.4l-1.04-2.77c-.32-.84-.56-1.54-.71-2.08-.13.64-.31,1.28-.54,1.91l-1.1,2.94Z"/>
    <polygon class="cls-6" points="849.47 68.64 849.47 58.62 850.79 58.62 850.79 67.46 855.73 67.46 855.73 68.64 849.47 68.64"/>
    <rect class="cls-6" x="862.85" y="58.62" width="1.33" height="10.02"/>
    <path class="cls-6" d="M871.84,68.64v-10.02h3.45c.78,0,1.37.05,1.78.14.57.13,1.06.37,1.47.72.53.45.92,1.02,1.18,1.71.26.7.39,1.49.39,2.38,0,.76-.09,1.44-.27,2.02-.18.59-.41,1.07-.68,1.46-.28.39-.58.69-.91.91-.33.22-.73.39-1.2.5-.47.11-1,.17-1.61.17h-3.62ZM873.16,67.46h2.14c.66,0,1.18-.06,1.55-.18.38-.12.68-.3.9-.52.31-.31.56-.74.73-1.27.18-.53.26-1.17.26-1.93,0-1.05-.17-1.85-.52-2.42-.34-.56-.76-.94-1.25-1.13-.36-.14-.93-.2-1.72-.2h-2.11v7.66Z"/>
    <polygon class="cls-6" points="887.3 68.64 887.3 58.62 894.54 58.62 894.54 59.8 888.62 59.8 888.62 62.87 894.17 62.87 894.17 64.05 888.62 64.05 888.62 67.46 894.77 67.46 894.77 68.64 887.3 68.64"/>
    <polygon class="cls-6" points="901.91 68.64 901.91 58.62 903.27 58.62 908.54 66.49 908.54 58.62 909.81 58.62 909.81 68.64 908.45 68.64 903.18 60.76 903.18 68.64 901.91 68.64"/>
    <polygon class="cls-6" points="919.91 68.64 919.91 59.8 916.61 59.8 916.61 58.62 924.55 58.62 924.55 59.8 921.23 59.8 921.23 68.64 919.91 68.64"/>
    <rect class="cls-6" x="931.45" y="58.62" width="1.33" height="10.02"/>
    <polygon class="cls-6" points="942.99 68.64 942.99 59.8 939.69 59.8 939.69 58.62 947.63 58.62 947.63 59.8 944.31 59.8 944.31 68.64 942.99 68.64"/>
    <path class="cls-6" d="M957.13,68.64v-4.24l-3.86-5.78h1.61l1.98,3.02c.36.57.7,1.13,1.02,1.7.3-.52.66-1.11,1.09-1.77l1.94-2.95h1.54l-4,5.78v4.24h-1.33Z"/>
    <path class="cls-6" d="M968.93,68.64v-10.02h2l2.37,7.1c.22.66.38,1.15.48,1.48.11-.37.29-.9.53-1.61l2.4-6.97h1.78v10.02h-1.28v-8.39l-2.91,8.39h-1.2l-2.9-8.53v8.53h-1.28Z"/>
    <path class="cls-6" d="M984.85,68.64l3.85-10.02h1.43l4.1,10.02h-1.51l-1.17-3.04h-4.19l-1.1,3.04h-1.41ZM987.74,64.52h3.4l-1.05-2.77c-.32-.84-.56-1.54-.71-2.08-.13.64-.31,1.28-.54,1.91l-1.1,2.94Z"/>
    <polygon class="cls-6" points="1000.59 68.64 1000.59 58.62 1001.95 58.62 1007.22 66.49 1007.22 58.62 1008.49 58.62 1008.49 68.64 1007.13 68.64 1001.87 60.76 1001.87 68.64 1000.59 68.64"/>
    <path class="cls-6" d="M1022.61,58.62h1.33v5.79c0,1.01-.11,1.81-.34,2.4-.23.59-.64,1.08-1.23,1.45-.6.37-1.38.56-2.34.56s-1.71-.16-2.3-.48c-.6-.32-1.02-.79-1.28-1.41-.26-.61-.38-1.45-.38-2.51v-5.79h1.33v5.78c0,.87.08,1.51.24,1.92.16.41.44.73.83.95.39.22.88.34,1.45.34.97,0,1.67-.22,2.09-.66.41-.44.62-1.29.62-2.55v-5.78Z"/>
    <path class="cls-6" d="M1030.37,68.64l3.85-10.02h1.43l4.1,10.02h-1.51l-1.17-3.04h-4.19l-1.1,3.04h-1.41ZM1033.26,64.52h3.4l-1.05-2.77c-.32-.84-.56-1.54-.71-2.08-.13.64-.31,1.28-.54,1.91l-1.1,2.94Z"/>
    <polygon class="cls-6" points="1046.07 68.64 1046.07 58.62 1047.4 58.62 1047.4 67.46 1052.33 67.46 1052.33 68.64 1046.07 68.64"/>
    <path class="cls-6" d="M1611.51,63.05c-.53-.41-1.57-1.07-2.35-1.5l.6-.73c.76.42,1.82,1.01,2.37,1.39l-.62.84ZM1612.39,65.03c-.57,1.47-1.36,3.19-2.02,4.48l-.92-.57c.62-1.08,1.48-2.91,2.13-4.48l.81.57ZM1612.17,59.39c-.53-.42-1.57-1.11-2.33-1.6l.6-.71c.76.43,1.81,1.08,2.34,1.49l-.62.83ZM1614.35,61.43c0,2.44-.24,5.9-1.89,8.24-.17-.18-.62-.45-.85-.55,1.58-2.24,1.72-5.39,1.72-7.69v-3.82h8.52v.95h-7.49v2.87ZM1616.58,66.01c-.46,1.02-1.16,2.14-1.77,2.87-.2-.15-.59-.39-.84-.53.64-.67,1.26-1.67,1.67-2.59l.94.25ZM1618.65,64.97v3.66c0,.52-.08.79-.48.94-.38.15-.97.15-1.91.14-.04-.27-.17-.63-.29-.9.67.03,1.29.01,1.44.01.18-.01.24-.06.24-.21v-3.64h-2.51v-4.8h2.11c.16-.45.32-1.02.41-1.41l1.16.24c-.2.41-.39.81-.57,1.18h3.05v4.8h-2.66ZM1616.09,62.18h4.26v-1.22h-4.26v1.22ZM1616.09,64.17h4.26v-1.23h-4.26v1.23ZM1620.49,65.64c.55.85,1.25,2,1.6,2.68l-.95.42c-.31-.7-.99-1.86-1.54-2.74l.9-.35Z"/>
    <path class="cls-6" d="M1642.85,63.54h-3.01v6.18h-1.05v-6.18h-4.27c-.11,2.31-.71,4.58-3.56,6.21-.15-.24-.52-.62-.74-.78,2.59-1.46,3.16-3.42,3.28-5.42h-3.14v-1.01h3.15v-3.11c-.9.25-1.79.49-2.66.68-.06-.25-.22-.63-.38-.84,2.21-.52,4.68-1.29,6.07-2.13l.78.85c-.78.41-1.75.77-2.79,1.11v3.43h4.26v-5.34h1.05v5.34h3.01v1.01Z"/>
    <path class="cls-6" d="M1656.79,63.61c-.41-.35-1.44-1.09-2.14-1.57-.48.8-1.32,1.58-2.79,2.26-.13-.22-.42-.56-.66-.71,1.78-.7,2.52-1.62,2.82-2.48h-2.69v-.85h2.87c.03-.18.03-.34.03-.51v-.81h-1.18c-.27.48-.57.91-.88,1.25-.2-.14-.6-.39-.84-.5.71-.69,1.26-1.74,1.58-2.79l.94.18c-.1.35-.24.69-.38,1.02h3.81v.84h-2.06v.81c0,.17,0,.32-.03.51h2.44v.85h-2.59c-.01.08-.04.15-.07.24.55.29,2.16,1.27,2.55,1.55l-.73.71ZM1653.35,63.97h8.54v5.72h-1.05v-.49h-6.47v.52h-1.02v-5.74ZM1654.38,66.15h6.47v-1.32h-6.47v1.32ZM1660.85,66.96h-6.47v1.39h6.47v-1.39ZM1663.09,62.91h-4.89v-4.86h4.89v4.86ZM1662.07,58.99h-2.89v2.97h2.89v-2.97Z"/>
    <path class="cls-6" d="M1676.82,57.76c.71.94,1.5,2.2,1.79,3.02l-.91.41c-.08-.23-.18-.46-.31-.74-3.82.28-4.3.35-4.61.46-.06-.21-.21-.73-.34-.98.21-.06.41-.25.64-.55.24-.3,1.01-1.4,1.46-2.49l1.07.34c-.48.92-1.11,1.88-1.71,2.62l3.07-.18c-.31-.55-.67-1.09-1.01-1.55l.85-.35ZM1677.98,68.51c0,.53-.1.81-.49.98-.38.17-.98.18-1.86.18-.06-.28-.2-.69-.34-.95.66.03,1.25.01,1.43,0,.2,0,.24-.04.24-.22v-1.64h-2.95v2.84h-.97v-7.83h4.94v6.64ZM1674,63.95h2.95v-1.19h-2.95v1.19ZM1676.96,64.77h-2.95v1.28h2.95v-1.28ZM1680.95,63.04c-1.32,0-1.65-.32-1.65-1.46v-4.62h1.01v2.34c1.19-.39,2.45-.91,3.25-1.32l.7.76c-1.11.52-2.6,1.01-3.95,1.41v1.41c0,.43.11.53.74.53h2.23c.53,0,.63-.24.7-1.62.21.18.63.34.93.41-.13,1.68-.43,2.16-1.54,2.16h-2.41ZM1683.35,68.67c.57,0,.69-.28.76-1.83.22.15.63.32.92.38-.13,1.89-.43,2.38-1.6,2.38h-2.44c-1.34,0-1.69-.32-1.69-1.47v-4.69h1.02v2.2c1.26-.41,2.62-.94,3.4-1.46l.69.77c-1.06.63-2.68,1.16-4.09,1.55v1.62c0,.46.13.55.77.55h2.26Z"/>
    <path class="cls-6" d="M1697.62,65.56c-.28-.42-.87-1.22-1.36-1.85v5.99h-.99v-5.42c-.53.57-1.08,1.08-1.62,1.49-.08-.29-.31-.81-.46-1.01,1.42-.97,2.9-2.72,3.71-4.48h-3.38v-.95h3.88l.2-.04.56.38c-.39,1.07-.97,2.13-1.62,3.07.52.58,1.48,1.7,1.75,2l-.66.83ZM1696.07,59.24c-.25-.5-.78-1.27-1.29-1.82l.8-.46c.53.52,1.08,1.23,1.33,1.75l-.84.53ZM1704.57,68.71c.48,0,.55-.36.62-2.37.25.2.59.34.86.41-.13,2.2-.3,2.76-1.49,2.76h-1.27c-.95,0-1.33-.27-1.33-1.18v-2.67c-.56,1.5-1.65,2.97-3.74,4.08-.11-.22-.45-.62-.66-.79,3.52-1.82,3.94-4.47,3.94-6.64v-2.72h1.01v2.74c0,.77-.07,1.58-.28,2.44h.7v3.45c0,.39.11.49.52.49h1.14ZM1699.91,65h-1.01v-7.39h6.35v7.39h-1.04v-6.47h-4.3v6.47Z"/>
    <path class="cls-6" d="M1720,63.19h1.05v1.48c0,1.61-.57,3.68-5.71,5.1-.13-.24-.42-.63-.67-.83,4.97-1.23,5.34-3,5.34-4.29v-1.47ZM1715.84,62.2h-1.02v-2.77h2.33c-.3-.52-.84-1.23-1.33-1.75l.87-.43c.55.55,1.16,1.32,1.44,1.84l-.67.35h5.42c.53-.69,1.16-1.67,1.53-2.37l1.08.38c-.45.66-.99,1.4-1.47,1.99h2.44v2.77h-1.07v-1.83h-9.54v1.83ZM1723.58,66.68v-4.1h-6.02v4.06h-1.04v-5.01h8.14v5.06h-1.08ZM1720.47,59.38c-.2-.56-.67-1.44-1.12-2.09l.87-.32c.49.63.98,1.49,1.19,2.05l-.94.36ZM1725.18,68.53c.52,0,.62-.17.67-1.44.22.17.64.32.94.39-.13,1.57-.43,1.96-1.51,1.96h-2.4c-1.37,0-1.69-.28-1.69-1.3v-2.31h1.02v2.31c0,.34.11.39.76.39h2.21Z"/>
    <path class="cls-6" d="M1739.76,65.98c.07.28.28.69.39.88-2.41,1.88-2.79,2.19-3,2.45-.14-.18-.46-.55-.66-.7.28-.22.79-.77.79-1.48v-4.83h-1.96v-.99h2.97v5.8l1.47-1.12ZM1738.21,60.05c-.45-.59-1.4-1.5-2.16-2.13l.69-.63c.76.6,1.74,1.47,2.19,2.05l-.71.71ZM1742.79,65.67c-.48,1.57-1.3,3.05-2.23,4.03-.2-.17-.66-.46-.9-.6.91-.88,1.65-2.24,2.07-3.67l1.05.24ZM1747.05,64.07h-6.3v-6.16h6.3v6.16ZM1746,58.9h-4.23v4.17h4.23v-4.17ZM1745.84,65.4c.76,1.19,1.58,2.77,1.9,3.77l-1.02.41c-.31-.99-1.08-2.61-1.82-3.82l.94-.35Z"/>
    <path class="cls-6" d="M1762.71,63.65s-.01.32-.01.48c-.15,3.36-.29,4.59-.65,5.01-.22.28-.48.39-.84.42-.34.04-.94.03-1.55,0-.03-.31-.13-.71-.29-.99.6.06,1.14.07,1.36.07s.34-.03.46-.15c.21-.25.35-1.26.48-3.87h-1.95c-.3,2.27-.99,4.05-2.97,5.14-.13-.25-.42-.6-.66-.77,1.76-.91,2.39-2.45,2.65-4.37h-2.32v-.97h2.42c.03-.38.05-.78.07-1.2h.99c-.03.42-.04.81-.08,1.2h2.9ZM1762.47,62.1h-5.55v-4.55h5.55v4.55ZM1761.46,58.47h-3.57v2.69h3.57v-2.69ZM1765.34,66.3h-1.01v-7.69h1.01v7.69ZM1768.31,57.2v11.15c0,.69-.18.99-.6,1.16-.43.2-1.16.21-2.41.21-.04-.28-.21-.76-.36-1.05.94.04,1.75.03,2,.01.25,0,.35-.08.35-.34v-11.15h1.02Z"/>
    <path class="cls-6" d="M1781.65,65.85c-.84,1.12-2.07,2.28-3.12,3.03-.21-.2-.63-.55-.91-.69,1.12-.67,2.27-1.71,3-2.7l1.04.36ZM1784.24,64.59v3.74c0,.59-.13.87-.59,1.04-.45.18-1.15.18-2.17.18-.04-.31-.22-.73-.39-1.02.84.03,1.6.03,1.82.03.24-.01.28-.07.28-.24v-3.64c-3.83.28-4.37.36-4.76.52-.04-.21-.2-.69-.32-.97.46-.06,1.08-.32,1.95-.76.48-.23,1.5-.79,2.7-1.51-2.84.17-3.29.22-3.56.34-.06-.2-.2-.67-.31-.94.29-.03.62-.24,1.02-.56.36-.22,1.39-1.05,2.3-2-1.3.11-2.6.2-3.82.25-.03-.27-.15-.67-.27-.91,3.38-.18,7.42-.55,9.66-1.11l.74.86c-1.33.32-3.05.59-4.87.77-.91.95-1.93,1.86-2.93,2.58l3.39-.17c.76-.5,1.53-1.06,2.23-1.64l.8.67c-2.05,1.55-4.17,2.84-6.28,3.85l6.12-.39c-.36-.41-.76-.78-1.12-1.14l.79-.41c1.09.95,2.28,2.24,2.86,3.08l-.83.5c-.24-.35-.59-.8-.98-1.26l-3.46.25ZM1786.3,65.42c1.15.84,2.59,2.07,3.33,2.86l-.88.63c-.69-.78-2.11-2.06-3.28-2.96l.83-.53Z"/>
    <path class="cls-6" d="M1802.75,64.07c-.03.28-.01.7.03.91-3.46.76-3.92.9-4.22,1.08-.06-.21-.22-.71-.34-.99.28-.07.62-.41,1.05-.92.25-.27.8-.97,1.39-1.84-1.67.24-1.99.31-2.2.42-.06-.24-.24-.77-.36-1.08.25-.05.52-.38.81-.84.34-.46,1.37-2.26,1.97-3.94l1.07.49c-.66,1.46-1.5,2.97-2.35,4.17l1.69-.18c.32-.49.62-1.02.88-1.53l.92.55c-.87,1.51-1.92,3-2.97,4.22l2.62-.52ZM1802.9,67.46c-1.55.5-3.19,1.02-4.44,1.43l-.24-1.04c1.12-.29,2.83-.8,4.51-1.3l.17.91ZM1805.76,63.72c-.11,3.14-.55,4.92-3.08,5.94-.11-.25-.39-.66-.63-.83,2.27-.85,2.59-2.35,2.69-5.11h1.02ZM1809.95,64.07c-.14-.29-.34-.65-.56-1.02-5.06.48-5.65.55-6.02.71-.05-.25-.25-.8-.35-1.01.25-.07.62-.17.87-.43.32-.3,1.32-1.57,1.93-2.44h-2.52v-.94h3.38c-.14-.48-.49-1.23-.76-1.79l.95-.27c.31.56.67,1.33.84,1.78l-.88.28h3.98v.94h-3.77c-.59.83-1.39,1.9-2,2.66l3.84-.32c-.29-.45-.62-.91-.92-1.32l.81-.41c.74.98,1.65,2.28,2.06,3.07l-.87.51ZM1809.67,68.53c.29,0,.35-.27.39-1.93.21.2.63.35.9.42-.08,1.91-.32,2.41-1.18,2.41h-1.22c-.98,0-1.22-.31-1.22-1.32v-4.4h1.02v4.4c0,.36.04.42.35.42h.95Z"/>
    <line class="cls-1" x1="1808.95" y1="97.2" x2="111.31" y2="97.2"/>
    <path class="cls-6" d="M114.57,68.64v-10.02h4.44c.89,0,1.57.09,2.04.27.46.18.84.5,1.11.95.28.46.42.96.42,1.51,0,.71-.23,1.31-.69,1.8-.46.49-1.17.8-2.13.93.35.17.62.34.8.5.39.36.76.8,1.1,1.33l1.74,2.73h-1.67l-1.33-2.09c-.39-.6-.71-1.06-.96-1.38-.25-.32-.47-.54-.67-.67-.2-.13-.4-.22-.61-.27-.15-.03-.4-.05-.74-.05h-1.54v4.45h-1.33ZM115.89,63.04h2.85c.61,0,1.08-.06,1.42-.19.34-.13.6-.33.78-.6.18-.28.27-.58.27-.9,0-.47-.17-.86-.52-1.17-.34-.3-.89-.46-1.63-.46h-3.17v3.31Z"/>
    <path class="cls-6" d="M130.61,71.43l-.14-1.15c.27.07.5.11.7.11.27,0,.49-.04.66-.14.16-.09.3-.22.4-.38.08-.12.2-.43.38-.92.02-.07.06-.17.11-.3l-2.76-7.27h1.33l1.51,4.2c.2.53.37,1.09.53,1.68.14-.56.31-1.12.51-1.65l1.55-4.23h1.23l-2.76,7.38c-.3.8-.53,1.35-.69,1.65-.22.41-.47.7-.75.89-.28.19-.62.28-1.01.28-.24,0-.5-.05-.79-.15"/>
    <path class="cls-6" d="M143.33,66.47l1.22-.19c.07.49.26.86.57,1.12.31.26.75.39,1.31.39s.98-.11,1.26-.34c.27-.23.41-.5.41-.81,0-.28-.12-.5-.36-.66-.17-.11-.59-.25-1.26-.42-.9-.23-1.53-.42-1.88-.59-.35-.17-.61-.4-.79-.69-.18-.29-.27-.62-.27-.98,0-.32.07-.62.22-.9.15-.28.35-.51.61-.69.19-.14.45-.26.78-.36.33-.1.68-.15,1.06-.15.57,0,1.07.08,1.5.25.43.16.75.39.95.67.21.28.35.66.42,1.12l-1.2.16c-.06-.37-.21-.66-.48-.88-.26-.21-.63-.31-1.11-.31-.57,0-.97.09-1.21.28-.24.19-.36.41-.36.66,0,.16.05.3.15.43.1.13.26.24.47.33.12.05.49.15,1.09.32.87.23,1.48.42,1.82.57.35.15.62.36.81.64.2.28.29.63.29,1.05s-.12.8-.36,1.16c-.24.36-.58.64-1.04.84s-.96.3-1.53.3c-.94,0-1.66-.2-2.16-.59-.49-.39-.81-.97-.95-1.74"/>
    <path class="cls-6" d="M161.95,66.3l1.27.16c-.2.74-.57,1.32-1.11,1.73-.54.41-1.24.61-2.08.61-1.06,0-1.9-.33-2.53-.98-.62-.65-.93-1.57-.93-2.75s.32-2.17.94-2.84c.63-.67,1.44-1.01,2.45-1.01s1.76.33,2.38.99c.62.66.92,1.59.92,2.79,0,.07,0,.18,0,.33h-5.41c.04.8.27,1.41.68,1.83.41.42.91.63,1.52.63.45,0,.84-.12,1.15-.35.32-.24.57-.61.76-1.14M157.91,64.31h4.05c-.05-.61-.21-1.07-.46-1.37-.39-.47-.9-.71-1.52-.71-.57,0-1.04.19-1.43.57-.38.38-.6.88-.64,1.52"/>
    <path class="cls-6" d="M170.93,68.64v-7.26h1.11v1.03c.53-.8,1.3-1.2,2.31-1.2.44,0,.84.08,1.21.24.37.16.64.36.82.62.18.26.31.56.38.91.04.23.07.63.07,1.2v4.46h-1.23v-4.42c0-.5-.05-.88-.14-1.12-.1-.25-.26-.45-.51-.59-.24-.15-.53-.22-.86-.22-.52,0-.98.17-1.36.5-.38.33-.57.96-.57,1.89v3.96h-1.23Z"/>
    <path class="cls-6" d="M195.1,68.64v-10.02h4.44c.89,0,1.57.09,2.04.27.46.18.84.5,1.11.95.28.46.42.96.42,1.51,0,.71-.23,1.31-.69,1.8-.46.49-1.17.8-2.13.93.35.17.62.34.8.5.39.36.75.8,1.1,1.33l1.74,2.73h-1.67l-1.33-2.09c-.39-.6-.71-1.06-.96-1.38-.25-.32-.48-.54-.67-.67-.2-.13-.4-.22-.61-.27-.15-.03-.4-.05-.74-.05h-1.54v4.45h-1.33ZM196.43,63.04h2.85c.6,0,1.08-.06,1.42-.19.34-.13.6-.33.78-.6.18-.28.27-.58.27-.9,0-.47-.17-.86-.52-1.17-.34-.3-.89-.46-1.63-.46h-3.17v3.31Z"/>
    <path class="cls-6" d="M210.73,65.01c0-1.34.37-2.34,1.12-2.99.62-.54,1.38-.81,2.28-.81,1,0,1.81.33,2.45.98s.95,1.56.95,2.71c0,.93-.14,1.67-.42,2.21-.28.53-.69.95-1.22,1.25s-1.12.44-1.75.44c-1.02,0-1.84-.32-2.47-.98-.63-.65-.94-1.59-.94-2.82M212,65.01c0,.93.2,1.63.61,2.09.41.46.92.69,1.53.69s1.12-.23,1.52-.7c.41-.46.61-1.17.61-2.13,0-.9-.21-1.58-.61-2.04-.41-.46-.92-.69-1.52-.69s-1.13.23-1.53.69c-.4.46-.61,1.15-.61,2.08"/>
    <path class="cls-6" d="M226.27,68.64h-1.14v-10.02h1.23v3.58c.52-.65,1.18-.98,1.99-.98.45,0,.87.09,1.27.27.4.18.73.43.98.76.26.33.46.72.6,1.18.15.46.22.95.22,1.48,0,1.24-.31,2.21-.92,2.89-.62.68-1.35,1.02-2.21,1.02s-1.53-.36-2.02-1.07v.91ZM226.26,64.95c0,.87.12,1.5.35,1.89.39.63.91.95,1.57.95.54,0,1-.23,1.39-.7.39-.47.59-1.16.59-2.09s-.19-1.65-.56-2.1c-.38-.45-.83-.68-1.36-.68s-1,.23-1.39.7c-.39.47-.59,1.14-.59,2.03"/>
    <path class="cls-6" d="M238.63,65.01c0-1.34.37-2.34,1.12-2.99.62-.54,1.39-.81,2.28-.81,1,0,1.81.33,2.45.98s.95,1.56.95,2.71c0,.93-.14,1.67-.42,2.21-.28.53-.69.95-1.22,1.25s-1.12.44-1.75.44c-1.02,0-1.84-.32-2.47-.98-.63-.65-.94-1.59-.94-2.82M239.89,65.01c0,.93.2,1.63.61,2.09.41.46.92.69,1.53.69s1.12-.23,1.52-.7c.41-.46.61-1.17.61-2.13,0-.9-.2-1.58-.61-2.04-.41-.46-.92-.69-1.52-.69s-1.13.23-1.53.69c-.4.46-.61,1.15-.61,2.08"/>
    <path class="cls-6" d="M255.72,67.54l.18,1.09c-.35.07-.66.11-.93.11-.45,0-.79-.07-1.04-.21-.25-.14-.42-.33-.52-.56-.1-.23-.15-.72-.15-1.45v-4.18h-.9v-.96h.9v-1.8l1.22-.74v2.54h1.24v.96h-1.24v4.24c0,.35.02.58.07.68.04.1.11.18.21.24.1.06.24.09.42.09.14,0,.32-.02.54-.05"/>
    <path class="cls-6" d="M263.09,58.62h1.23v1.41h-1.23v-1.41ZM263.09,61.38h1.23v7.26h-1.23v-7.26Z"/>
    <path class="cls-6" d="M277.09,65.98l1.21.16c-.13.83-.47,1.49-1.02,1.96-.54.47-1.21.71-2.01.71-.99,0-1.79-.32-2.4-.97-.6-.65-.91-1.58-.91-2.79,0-.78.13-1.47.39-2.06.26-.59.66-1.03,1.19-1.32.53-.29,1.11-.44,1.73-.44.79,0,1.43.2,1.93.6.5.4.82.96.96,1.7l-1.2.18c-.11-.49-.32-.85-.6-1.1-.29-.25-.64-.37-1.05-.37-.62,0-1.12.22-1.51.67-.39.44-.58,1.15-.58,2.11s.19,1.68.56,2.12c.37.44.86.66,1.46.66.48,0,.89-.15,1.21-.45.32-.3.53-.75.62-1.37"/>
    <path class="cls-6" d="M285.02,66.47l1.22-.19c.07.49.26.86.57,1.12.31.26.75.39,1.31.39s.98-.11,1.26-.34c.27-.23.41-.5.41-.81,0-.28-.12-.5-.36-.66-.17-.11-.59-.25-1.26-.42-.9-.23-1.53-.42-1.88-.59-.35-.17-.61-.4-.79-.69-.18-.29-.27-.62-.27-.98,0-.32.07-.62.22-.9.15-.28.35-.51.61-.69.19-.14.45-.26.78-.36.33-.1.69-.15,1.06-.15.57,0,1.07.08,1.5.25.43.16.75.39.95.67.21.28.35.66.42,1.12l-1.2.16c-.05-.37-.21-.66-.48-.88-.26-.21-.63-.31-1.11-.31-.57,0-.97.09-1.21.28-.24.19-.36.41-.36.66,0,.16.05.3.15.43.1.13.26.24.47.33.12.05.48.15,1.09.32.87.23,1.48.42,1.82.57.35.15.61.36.81.64.2.28.29.63.29,1.05s-.12.8-.36,1.16c-.24.36-.58.64-1.04.84-.45.2-.96.3-1.53.3-.94,0-1.66-.2-2.16-.59-.49-.39-.81-.97-.95-1.74"/>
    <g>
      <path class="cls-2" d="M639.25,411.03c-6.72-6.71-16.25-9.81-25.63-8.34l-89.85,14.08-.06-.03-93.65,93.71,44.32,44.33,103.57-103.63c3.58-3.59,9.4-3.59,12.98,0l52.28,52.29c3.58,3.59,3.58,9.4,0,12.98l-103.56,103.62,44.32,44.33,93.64-93.7.05.1,14.1-90.02c1.47-9.4-1.64-18.95-8.38-25.67l-44.13-44.06Z"/>
      <rect class="cls-5" x="464.49" y="588.93" width="62.25" height="62.25" transform="translate(-293.29 532.13) rotate(-45)"/>
    </g>
  </g>
</svg>